<svg width="18.000000" height="14.000000" viewBox="0 0 18 14" fill="none" xmlns="http://www.w3.org/2000/svg" xmlns:xlink="http://www.w3.org/1999/xlink">
	<desc>
			Created with Pixso.
	</desc>
	<defs>
		<clipPath id="clip31_15">
			<rect id="Гамбургер Икона" width="18.000000" height="14.000000" fill="white" fill-opacity="0"/>
		</clipPath>
	</defs>
	<g clip-path="url(#clip31_15)">
		<path id="path" d="M0.99 1.7L0.97 1.72C0.55 1.72 0.22 1.39 0.22 0.97C0.22 0.55 0.55 0.22 0.97 0.22L0.99 0.24L0.99 1.7ZM16.95 0.24L16.97 0.22C17.39 0.22 17.72 0.55 17.72 0.97C17.72 1.39 17.39 1.72 16.97 1.72L16.95 1.7L16.95 0.24Z" fill="#000000" fill-opacity="0" fill-rule="nonzero"/>
		<path id="path" d="M0.97 0.97L16.97 0.97" stroke="#FFFFFF" stroke-opacity="1.000000" stroke-width="1.500000" stroke-linejoin="round" stroke-linecap="round"/>
		<path id="path" d="M0.99 7.7L0.97 7.72C0.55 7.72 0.22 7.39 0.22 6.97C0.22 6.55 0.55 6.22 0.97 6.22L0.99 6.24L0.99 7.7ZM16.95 6.24L16.97 6.22C17.39 6.22 17.72 6.55 17.72 6.97C17.72 7.39 17.39 7.72 16.97 7.72L16.95 7.7L16.95 6.24Z" fill="#000000" fill-opacity="0" fill-rule="nonzero"/>
		<path id="path" d="M0.97 6.97L16.97 6.97" stroke="#FFFFFF" stroke-opacity="1.000000" stroke-width="1.500000" stroke-linejoin="round" stroke-linecap="round"/>
		<path id="path" d="M0.99 13.7L0.97 13.72C0.55 13.72 0.22 13.39 0.22 12.97C0.22 12.55 0.55 12.22 0.97 12.22L0.99 12.24L0.99 13.7ZM16.95 12.24L16.97 12.22C17.39 12.22 17.72 12.55 17.72 12.97C17.72 13.39 17.39 13.72 16.97 13.72L16.95 13.7L16.95 12.24Z" fill="#000000" fill-opacity="0" fill-rule="nonzero"/>
		<path id="path" d="M0.97 12.97L16.97 12.97" stroke="#FFFFFF" stroke-opacity="1.000000" stroke-width="1.500000" stroke-linejoin="round" stroke-linecap="round"/>
	</g>
</svg>
