<svg width="18.000000" height="18.000000" viewBox="0 0 18 18" fill="none" xmlns="http://www.w3.org/2000/svg" xmlns:xlink="http://www.w3.org/1999/xlink">
	<desc>
			Created with Pixso.
	</desc>
	<defs>
		<clipPath id="clip32_12">
			<rect id="Закрыть" width="18.000000" height="18.000000" fill="white" fill-opacity="0"/>
		</clipPath>
	</defs>
	<g clip-path="url(#clip32_12)">
		<path id="path" d="M0.49 1.53L0.46 1.53C0.17 1.23 0.17 0.76 0.46 0.46C0.76 0.17 1.23 0.17 1.53 0.46L1.53 0.49L0.49 1.53ZM17.5 16.46L17.53 16.46C17.82 16.76 17.82 17.23 17.53 17.53C17.23 17.82 16.76 17.82 16.46 17.53L16.46 17.5L17.5 16.46Z" fill="#000000" fill-opacity="0" fill-rule="nonzero"/>
		<path id="path" d="M1 1L17 17" stroke="#FFFFFF" stroke-opacity="1.000000" stroke-width="1.500000" stroke-linejoin="round" stroke-linecap="round"/>
		<path id="path" d="M1.53 17.5L1.53 17.53C1.23 17.82 0.76 17.82 0.46 17.53C0.17 17.23 0.17 16.76 0.46 16.46L0.49 16.46L1.53 17.5ZM16.46 0.49L16.46 0.46C16.76 0.17 17.23 0.17 17.53 0.46C17.82 0.76 17.82 1.23 17.53 1.53L17.5 1.53L16.46 0.49Z" fill="#000000" fill-opacity="0" fill-rule="nonzero"/>
		<path id="path" d="M1 17L17 1" stroke="#FFFFFF" stroke-opacity="1.000000" stroke-width="1.500000" stroke-linejoin="round" stroke-linecap="round"/>
	</g>
</svg>
